<svg id="Layer_1" data-name="Layer 1" xmlns="http://www.w3.org/2000/svg" viewBox="0 0 1297.31 410"><defs><style>.cls-1{fill:#eb387f;}.cls-2{fill:#662d91;}.cls-3{fill:#fff;}.cls-4{fill:none;}</style></defs><path class="cls-1" d="M507.77,442H325.94V623.85H371.4V557.22H507.77v3.85c.15,11,.52,39.25.61,62.78h44.85V487.48a43.54,43.54,0,0,0-13.14-32A44.1,44.1,0,0,0,507.77,442ZM371.4,517.22V487.48H485a22.43,22.43,0,0,1,22.73,22.73v7Z" transform="translate(-31.61 -227.22)"/><path class="cls-1" d="M872.79,449.56q-21.57-.09-43.13-.3v131.1a44.67,44.67,0,0,0,13.14,32.32q13.13,13.14,32.32,13.14h173.21c0-2.59,0-4.4,0-5,0-2.65,0-25.93.16-40.43H897.85a21.88,21.88,0,0,1-22.73-22.73v0H1024V516.22H875.12V490.79h173.67V449.4h-176Z" transform="translate(-31.61 -227.22)"/><path class="cls-2" d="M1262.79,449.22h-190v169h39v-127h140s35-2,36,30l3,97h38v-98S1334.79,448.22,1262.79,449.22Z" transform="translate(-31.61 -227.22)"/><rect class="cls-2" x="1147.19" y="286" width="38" height="105"/><polygon class="cls-1" points="661.19 341 593.19 222 540.19 222 661.19 410 783.19 222 730.19 222 661.19 341"/><rect class="cls-1" x="113.65" y="214.8" width="45.46" height="119.2"/><path class="cls-1" d="M258.9,578.39H99.79a22.43,22.43,0,0,1-22.73-22.72V442H31.61V578.39q0,19.18,13.49,32.32a44.29,44.29,0,0,0,32,13.14H304.35V442H258.9Z" transform="translate(-31.61 -227.22)"/><path class="cls-3" d="M776.79,425.22h26s31-66,70-133C872.79,292.22,830.79,338.22,776.79,425.22Z" transform="translate(-31.61 -227.22)"/><path class="cls-3" d="M136.79,384.22s345-223,768-108l10-17S519.79,132.22,136.79,384.22Z" transform="translate(-31.61 -227.22)"/><path class="cls-4" d="M1185.79,414.22S1128,359.74,1012.5,314.06A897.9,897.9,0,0,1,1185.79,414.22Z" transform="translate(-31.61 -227.22)"/><path class="cls-1" d="M923.78,281.2a848.16,848.16,0,0,1,88.72,32.86c115.52,45.68,173.29,100.16,173.29,100.16l24.49-30.37C1121,319.28,1031.61,276.25,944.7,249.37Z" transform="translate(-31.61 -227.22)"/></svg>